<?xml version="1.0" encoding="UTF-8" standalone="no"?>
<!-- Created with Inkscape (http://www.inkscape.org/) -->

<svg
   xmlns:osb="http://www.openswatchbook.org/uri/2009/osb"
   xmlns:dc="http://purl.org/dc/elements/1.1/"
   xmlns:cc="http://creativecommons.org/ns#"
   xmlns:rdf="http://www.w3.org/1999/02/22-rdf-syntax-ns#"
   xmlns:svg="http://www.w3.org/2000/svg"
   xmlns="http://www.w3.org/2000/svg"
   xmlns:xlink="http://www.w3.org/1999/xlink"
   xmlns:sodipodi="http://sodipodi.sourceforge.net/DTD/sodipodi-0.dtd"
   xmlns:inkscape="http://www.inkscape.org/namespaces/inkscape"
   width="95"
   height="95"
   id="svg2"
   version="1.1"
   inkscape:version="0.48.4 r9939"
   inkscape:export-filename="C:\Users\DOUTRESE\Downloads\demit.png"
   inkscape:export-xdpi="121.26316"
   inkscape:export-ydpi="121.26316"
   sodipodi:docname="Nouveau document 1">
  <defs
     id="defs4">
    <linearGradient
       id="linearGradient3876"
       osb:paint="solid">
      <stop
         style="stop-color:#000000;stop-opacity:0.24886878;"
         offset="0"
         id="stop3878" />
    </linearGradient>
    <linearGradient
       id="linearGradient3864">
      <stop
         style="stop-color:#00dea5;stop-opacity:1;"
         offset="0"
         id="stop3866" />
      <stop
         id="stop3872"
         offset="1"
         style="stop-color:#6692ff;stop-opacity:1;" />
    </linearGradient>
    <linearGradient
       inkscape:collect="always"
       xlink:href="#linearGradient3864"
       id="linearGradient3870"
       x1="285.67816"
       y1="305.55368"
       x2="379.95859"
       y2="305.55368"
       gradientUnits="userSpaceOnUse"
       gradientTransform="translate(19,146.5)" />
    <linearGradient
       inkscape:collect="always"
       xlink:href="#linearGradient3864-8"
       id="linearGradient3870-4"
       x1="285.67816"
       y1="305.55368"
       x2="379.95859"
       y2="305.55368"
       gradientUnits="userSpaceOnUse" />
    <linearGradient
       id="linearGradient3864-8">
      <stop
         style="stop-color:#00dea5;stop-opacity:1;"
         offset="0"
         id="stop3866-8" />
      <stop
         id="stop3872-2"
         offset="1"
         style="stop-color:#6692ff;stop-opacity:1;" />
    </linearGradient>
    <linearGradient
       gradientTransform="translate(5.8857696,140.11089)"
       y2="305.55368"
       x2="379.95859"
       y1="305.55368"
       x1="285.67816"
       gradientUnits="userSpaceOnUse"
       id="linearGradient3993"
       xlink:href="#linearGradient3864-8"
       inkscape:collect="always" />
    <linearGradient
       gradientTransform="translate(5.8857696,140.11089)"
       y2="305.55368"
       x2="379.95859"
       y1="305.55368"
       x1="285.67816"
       gradientUnits="userSpaceOnUse"
       id="linearGradient3993-5"
       xlink:href="#linearGradient3864-8-5"
       inkscape:collect="always" />
    <linearGradient
       id="linearGradient3864-8-5">
      <stop
         style="stop-color:#00dea5;stop-opacity:1;"
         offset="0"
         id="stop3866-8-1" />
      <stop
         id="stop3872-2-7"
         offset="1"
         style="stop-color:#6692ff;stop-opacity:1;" />
    </linearGradient>
    <linearGradient
       y2="305.55368"
       x2="379.95859"
       y1="305.55368"
       x1="285.67816"
       gradientTransform="translate(17.199468,256.07641)"
       gradientUnits="userSpaceOnUse"
       id="linearGradient4033"
       xlink:href="#linearGradient3864-8-5"
       inkscape:collect="always" />
    <linearGradient
       inkscape:collect="always"
       xlink:href="#linearGradient3864-8-5"
       id="linearGradient4094"
       x1="283.54984"
       y1="534.05292"
       x2="350.01785"
       y2="534.05292"
       gradientUnits="userSpaceOnUse"
       gradientTransform="matrix(1.5465761,-0.03710035,0.02928556,1.5386456,-155.90605,-248.33526)" />
    <linearGradient
       inkscape:collect="always"
       xlink:href="#linearGradient3864"
       id="linearGradient4114"
       gradientUnits="userSpaceOnUse"
       gradientTransform="translate(19.338388,144.25)"
       x1="285.67816"
       y1="305.55368"
       x2="379.95859"
       y2="305.55368" />
  </defs>
  <sodipodi:namedview
     id="base"
     pagecolor="#ffffff"
     bordercolor="#666666"
     borderopacity="1.0"
     inkscape:pageopacity="0.0"
     inkscape:pageshadow="2"
     inkscape:zoom="2.8284271"
     inkscape:cx="101.93691"
     inkscape:cy="69.729274"
     inkscape:document-units="px"
     inkscape:current-layer="layer1"
     showgrid="false"
     inkscape:showpageshadow="false"
     fit-margin-top="0"
     fit-margin-left="0"
     fit-margin-right="0"
     fit-margin-bottom="0"
     inkscape:window-width="1414"
     inkscape:window-height="904"
     inkscape:window-x="122"
     inkscape:window-y="13"
     inkscape:window-maximized="0" />
  <metadata
     id="metadata7">
    <rdf:RDF>
      <cc:Work
         rdf:about="">
        <dc:format>image/svg+xml</dc:format>
        <dc:type
           rdf:resource="http://purl.org/dc/dcmitype/StillImage" />
        <dc:title></dc:title>
      </cc:Work>
    </rdf:RDF>
  </metadata>
  <g
     inkscape:label="Calque 1"
     inkscape:groupmode="layer"
     id="layer1"
     transform="translate(-304.67817,-402.28827)">
    <path
       style="fill:url(#linearGradient4114);fill-opacity:1;stroke:none"
       d="m 345.27133,494.76154 c -1.18165,-0.26306 -4.64074,-1.2238 -6.70472,-3.00797 -3.35186,-2.89745 -3.77339,-4.53092 -4.05721,-9.67535 -0.10107,-1.83205 0.46585,-3.69567 1.35418,-5.52772 0.74545,-1.65757 1.79691,-3.16214 3.21567,-4.48306 5.77927,-5.38069 12.46833,-7.68274 25.60775,-8.40012 l 10.26722,-0.56057 0.73278,-2.60551 c 0.40304,-1.43303 0.70069,-8.23051 0.66146,-15.10551 -0.0603,-10.56121 -0.42799,-13.41214 -2.3708,-18.38083 -2.79879,-7.15783 -7.96378,-13.10298 -12.75819,-14.68528 -4.61185,-1.52205 -13.17381,-0.78821 -18.89383,2.21537 -1.88711,0.99092 -1.8185,1.19547 -3.74039,2.43128 -0.43174,0.27762 -0.30284,0.84713 -0.1156,1.30536 1.35965,3.3275 1.659,18.95577 0.52616,27.46855 -1.27379,9.57201 -4.8242,20.60482 -7.62757,23.70251 -2.64518,2.92289 -7.5175,2.52418 -10.78105,-0.88224 -3.1684,-3.30709 -4.6674,-7.87019 -4.6674,-14.20802 0,-8.7323 3.36669,-17.98019 11.46338,-31.48849 1.72038,-2.87023 1.72712,-3.31109 0.13442,-8.78977 -1.30932,-4.50391 -2.24496,-5.98399 -4.26938,-6.75367 -5.40954,-2.05671 -8.58779,1.15119 -11.25785,11.36292 -1.21918,4.66281 -2.2154,6.46562 -4.0911,7.40354 -1.48909,0.7446 -2.61202,0.85395 -2.81132,0.27376 -0.62116,-1.80834 2.93501,-10.81733 5.86852,-14.86691 3.93,-5.42521 8.07719,-7.46807 13.84179,-6.81831 3.71783,0.41905 5.25555,1.27208 8.43227,4.67769 2.06073,2.20921 3.35144,3.81156 3.59078,3.65355 0.63971,-0.42233 1.253,-0.73898 1.85502,-1.17578 0.68097,-0.49409 4.02574,-2.45995 7.24672,-3.86715 4.46482,-1.95062 7.03819,-2.56046 13.34562,-2.56831 8.97714,-0.0112 12.40375,1.25986 18.96382,7.03427 5.27557,4.64375 9.13806,12.74599 10.67837,22.3913 1.10716,6.93294 0.55705,14.36594 -0.6973,23.73909 -0.48383,3.61547 -1.42901,5.80876 -1.26844,5.85075 1.06532,0.27861 3.7643,0.75878 7.10409,1.51421 1.52076,0.34398 2.49861,0.54859 3.3903,0.70519 2.0598,0.36175 1.83189,0.23123 1.83744,0.44935 0.0276,1.08722 0.0894,0.99988 -0.33516,0.99636 -0.6512,-0.005 -2.044,-0.0831 -4.68273,-0.36933 -2.6051,-0.2826 -4.9879,-0.61724 -6.47977,-0.93765 -0.27145,-0.0583 -1.42025,-0.3337 -1.47934,-0.14568 -0.36395,1.15815 -1.45449,2.46095 -3.20564,6.20307 -1.67448,3.57828 -5.20235,8.81287 -7.83972,11.63243 -6.46238,6.90881 -13.04434,10.14717 -21.33482,10.49683 -3.575,0.15078 -7.4668,0.0589 -8.64846,-0.20415 z m 13.14846,-9.8482 c 1.65,-0.66799 4.48896,-2.46999 6.3088,-4.00444 3.38637,-2.85532 9.12033,-13.43222 9.44968,-14.48354 0.11064,-0.90227 0.75237,-0.91689 -0.5648,-0.92562 -1.29507,-0.009 -4.38245,-0.0239 -9.94368,0.18151 -5.64169,0.20839 -11.987,1.12591 -14.10999,1.83262 -2.123,0.70672 -5.1605,2.49979 -6.75,3.98461 -2.11089,1.97187 -2.89001,3.63351 -2.89001,6.1636 0,4.05325 3.0595,8.43383 6.26993,8.97725 3.06196,0.5183 8.6261,-0.26695 12.23007,-1.72599 z M 326.55055,452.7385 c 0.77897,-5.96352 1.66505,-14.44277 1.96907,-18.84277 l 0.55277,-8 -1.99685,3 c -1.09826,1.65 -2.99403,5.925 -4.21282,9.5 -2.6963,7.90891 -3.2972,22.63917 -1.03531,25.37944 0.88862,1.07656 1.75775,1.35519 2.35723,0.75571 0.52229,-0.52229 1.58695,-5.82886 2.36591,-11.79238 z"
       id="path3086"
       inkscape:connector-curvature="0"
       sodipodi:nodetypes="ssscsscssssssssssssssssssssssssssssssssssssssssscssssssssscssssss" />
  </g>
</svg>
